<svg width="24" height="24" viewBox="0 0 24 24" fill="none" xmlns="http://www.w3.org/2000/svg">
<path fill-rule="evenodd" clip-rule="evenodd" d="M16 3.25C15.5858 3.25 15.25 3.58579 15.25 4C15.25 4.41421 15.5858 4.75 16 4.75H18.1893L14.4697 8.46967C14.1768 8.76256 14.1768 9.23744 14.4697 9.53033C14.7626 9.82322 15.2374 9.82322 15.5303 9.53033L19.25 5.81066V8C19.25 8.41421 19.5858 8.75 20 8.75C20.4142 8.75 20.75 8.41421 20.75 8V4C20.75 3.58579 20.4142 3.25 20 3.25H16ZM8 20.75C8.41421 20.75 8.75 20.4142 8.75 20C8.75 19.5858 8.41421 19.25 8 19.25H5.81066L9.53033 15.5303C9.82322 15.2374 9.82322 14.7626 9.53033 14.4697C9.23744 14.1768 8.76256 14.1768 8.46967 14.4697L4.75 18.1893V16C4.75 15.5858 4.41421 15.25 4 15.25C3.58579 15.25 3.25 15.5858 3.25 16V20C3.25 20.4142 3.58579 20.75 4 20.75H8Z" fill="black"/>
</svg>
