<svg width="24" height="24" viewBox="0 0 24 24" fill="none" xmlns="http://www.w3.org/2000/svg">
<path fill-rule="evenodd" clip-rule="evenodd" d="M2.60902 8.86005C2.25558 9.07604 2.14415 9.53766 2.36015 9.8911C2.57614 10.2445 3.03775 10.356 3.39119 10.14L12.0001 4.87897L20.609 10.14C20.9625 10.356 21.4241 10.2445 21.6401 9.8911C21.8561 9.53766 21.7446 9.07604 21.3912 8.86005L12.3912 3.36005C12.1511 3.21334 11.8491 3.21334 11.609 3.36005L2.60902 8.86005ZM5.75 13C5.75 12.5858 5.41421 12.25 5 12.25C4.58579 12.25 4.25 12.5858 4.25 13V19.4C4.25 20.1456 4.85442 20.75 5.6 20.75H18.4C19.1456 20.75 19.75 20.1456 19.75 19.4V13C19.75 12.5858 19.4142 12.25 19 12.25C18.5858 12.25 18.25 12.5858 18.25 13V19.25H5.75V13Z" fill="black"/>
</svg>
