<svg width="24" height="24" viewBox="0 0 24 24" fill="none" xmlns="http://www.w3.org/2000/svg">
<path fill-rule="evenodd" clip-rule="evenodd" d="M6.22701 6.22703C6.5199 5.93414 6.99478 5.93414 7.28767 6.22703L12 10.9393L16.7123 6.22703C17.0052 5.93414 17.4801 5.93414 17.773 6.22703C18.0658 6.51992 18.0658 6.9948 17.773 7.28769L13.0606 12L17.773 16.7123C18.0658 17.0052 18.0658 17.4801 17.773 17.773C17.4801 18.0659 17.0052 18.0659 16.7123 17.773L12 13.0607L7.28767 17.773C6.99478 18.0659 6.5199 18.0659 6.22701 17.773C5.93412 17.4801 5.93412 17.0052 6.22701 16.7123L10.9393 12L6.22701 7.28769C5.93412 6.9948 5.93412 6.51992 6.22701 6.22703Z" fill="black"/>
</svg>
